PathFileType	4	(X/Y/Z)	/home/nbianco/projects/addbio/data/HamnerRunning2013/Processed/subject02//results/MarkerData/run200.trc
DataRate	CameraRate	NumFrames	NumMarkers	Units	OrigDataRate	OrigDataStartFrame	OrigNumFrames
119.99	119.99	10	42	m	119.99	219	292
Frame#	Time	C7			CLAV			LACR			LASI			LCAL			LFAradius			LFAsuperior			LFAulna			LLEL			LMEL			LMT5			LPSI			LTB1			LTB2			LTB3			LTH1			LTH2			LTH3			LTOE			LUA1			LUA2			LUA3			RACR			RASI			RCAL			RFAradius			RFAsuperior			RFAulna			RLEL			RMEL			RMT5			RPSI			RTB1			RTB2			RTB3			RTH1			RTH2			RTH3			RTOE			RUA1			RUA2			RUA3		
		X1	Y1	Z1	X2	Y2	Z2	X3	Y3	Z3	X4	Y4	Z4	X5	Y5	Z5	X6	Y6	Z6	X7	Y7	Z7	X8	Y8	Z8	X9	Y9	Z9	X10	Y10	Z10	X11	Y11	Z11	X12	Y12	Z12	X13	Y13	Z13	X14	Y14	Z14	X15	Y15	Z15	X16	Y16	Z16	X17	Y17	Z17	X18	Y18	Z18	X19	Y19	Z19	X20	Y20	Z20	X21	Y21	Z21	X22	Y22	Z22	X23	Y23	Z23	X24	Y24	Z24	X25	Y25	Z25	X26	Y26	Z26	X27	Y27	Z27	X28	Y28	Z28	X29	Y29	Z29	X30	Y30	Z30	X31	Y31	Z31	X32	Y32	Z32	X33	Y33	Z33	X34	Y34	Z34	X35	Y35	Z35	X36	Y36	Z36	X37	Y37	Z37	X38	Y38	Z38	X39	Y39	Z39	X40	Y40	Z40	X41	Y41	Z41	X42	Y42	Z42

220	1.95833	0.834426	1.54948	-0.328025	0.951877	1.44746	-0.291813	0.917231	1.50005	-0.502441	0.904363	1.03249	-0.449368	0.590566	0.329357	-0.415113	0.941724	1.09396	-0.477429	0.822965	1.15492	-0.606578	0.930303	1.04191	-0.525424	0.737217	1.19777	-0.637894	0.685176	1.19716	-0.566952	0.662655	0.183678	-0.503787	0.713604	1.07108	-0.38918	0.946497	0.41645	-0.407622	0.862194	0.39665	-0.468037	0.771785	0.317313	-0.419041	0.90125	0.825122	-0.494067	1.00083	0.731574	-0.475783	0.972574	0.610491	-0.461626	0.727063	0.137976	-0.418651	0.883264	1.41021	-0.575475	0.874739	1.33798	-0.56831	0.77734	1.3507	-0.575062	0.900317	1.50619	-0.154064	0.86607	1.05642	-0.19002	0.636141	0.107552	-0.31958	1.03893	1.12241	-0.104783	0.90243	1.15522	0.00614175	1.03254	1.07016	-0.0529	0.797405	1.18366	0.0284722	0.758564	1.16433	-0.0433291	0.796311	0.0480832	-0.237373	0.700034	1.07285	-0.309887	0.880214	0.373526	-0.277799	0.837613	0.312303	-0.216048	0.809221	0.223305	-0.291877	0.809698	0.886927	-0.141597	0.877052	0.784554	-0.144845	0.826574	0.663061	-0.187864	0.868491	0.0690665	-0.332499	0.879771	1.40339	-0.0739233	0.87682	1.31298	-0.0710859	0.808477	1.31252	-0.0329342
221	1.96667	0.833799	1.55258	-0.327638	0.95174	1.45108	-0.292516	0.914888	1.50365	-0.502676	0.903926	1.03569	-0.448496	0.606311	0.318479	-0.414895	0.934546	1.10331	-0.481186	0.814754	1.16408	-0.608474	0.921722	1.05001	-0.527301	0.728787	1.20614	-0.639104	0.677342	1.20587	-0.567776	0.685069	0.176029	-0.503322	0.712962	1.0749	-0.389799	0.958529	0.419701	-0.407339	0.87509	0.397384	-0.46752	0.788101	0.314422	-0.418473	0.903098	0.829945	-0.494546	1.00476	0.738528	-0.475589	0.97909	0.617272	-0.461835	0.751262	0.133459	-0.418252	0.87944	1.41494	-0.576207	0.869498	1.34308	-0.569412	0.77203	1.358	-0.575091	0.901522	1.51112	-0.154781	0.864193	1.05764	-0.189223	0.619821	0.108454	-0.320052	1.04734	1.13759	-0.11035	0.911728	1.16296	0.00331309	1.0445	1.08465	-0.0588609	0.805972	1.18624	0.0275987	0.766444	1.16688	-0.0441747	0.779492	0.048152	-0.237684	0.699227	1.07654	-0.310377	0.865805	0.373307	-0.278743	0.822376	0.312627	-0.217095	0.793579	0.223554	-0.292717	0.80508	0.888623	-0.142524	0.870058	0.784918	-0.145935	0.81669	0.664614	-0.189054	0.851834	0.0687552	-0.33259	0.881981	1.40869	-0.0742902	0.881908	1.31784	-0.072192	0.814881	1.31592	-0.0317428
222	1.975	0.833278	1.55612	-0.327286	0.951826	1.45532	-0.293344	0.912378	1.50782	-0.502994	0.903526	1.03933	-0.447723	0.622537	0.306869	-0.414391	0.927842	1.11373	-0.485263	0.807023	1.1739	-0.60974	0.913444	1.05871	-0.528817	0.720628	1.21516	-0.639941	0.669759	1.21523	-0.568304	0.708039	0.167931	-0.502489	0.712496	1.07926	-0.390043	0.969927	0.423564	-0.407079	0.887687	0.397908	-0.466992	0.804416	0.311274	-0.41746	0.904806	0.835301	-0.495221	1.00834	0.745761	-0.475555	0.984902	0.624411	-0.462151	0.776008	0.128901	-0.417638	0.875153	1.42064	-0.57697	0.864311	1.34909	-0.570808	0.766793	1.36592	-0.575282	0.90298	1.51645	-0.155635	0.862792	1.05914	-0.188573	0.603645	0.109601	-0.320537	1.05431	1.1536	-0.115971	0.919873	1.17131	0.00046899	1.05488	1.10006	-0.0651299	0.813745	1.18972	0.0264943	0.773525	1.17047	-0.0452653	0.762726	0.0483618	-0.238101	0.698576	1.08073	-0.310437	0.851189	0.373574	-0.279867	0.806911	0.313434	-0.218338	0.777726	0.224285	-0.293758	0.800312	0.890545	-0.143723	0.863359	0.785657	-0.147302	0.80683	0.666593	-0.190461	0.835195	0.0685122	-0.332655	0.884284	1.41444	-0.0747913	0.886685	1.32334	-0.0733958	0.820885	1.32029	-0.0309759
223	1.98333	0.832893	1.56008	-0.326968	0.952124	1.46017	-0.29431	0.909854	1.51243	-0.503383	0.903123	1.0434	-0.447079	0.639255	0.294582	-0.413602	0.921462	1.12466	-0.489305	0.799368	1.18369	-0.610837	0.905519	1.06787	-0.530114	0.712738	1.22467	-0.640429	0.662478	1.22515	-0.568448	0.731625	0.159552	-0.501305	0.712187	1.08406	-0.389989	0.980684	0.42801	-0.406824	0.899908	0.398292	-0.466535	0.820714	0.307901	-0.416229	0.906393	0.841092	-0.495929	1.01159	0.753362	-0.4757	0.989937	0.631821	-0.462541	0.801355	0.124384	-0.416652	0.87049	1.42724	-0.577726	0.859282	1.35591	-0.572525	0.761777	1.3743	-0.575507	0.904637	1.52206	-0.156614	0.861893	1.06091	-0.188122	0.587638	0.111146	-0.321023	1.05987	1.17017	-0.121556	0.926936	1.18009	-0.00243345	1.06362	1.11601	-0.0716808	0.820716	1.19392	0.0252501	0.779804	1.17484	-0.0464756	0.745995	0.0486685	-0.238663	0.698174	1.08526	-0.310165	0.83644	0.374311	-0.281161	0.791295	0.31471	-0.21976	0.76172	0.225481	-0.294971	0.7958	0.892789	-0.145037	0.856956	0.786726	-0.148933	0.797023	0.669045	-0.192057	0.818614	0.0683226	-0.332776	0.886854	1.42045	-0.0754891	0.891115	1.32928	-0.074625	0.826372	1.32537	-0.030617
224	1.99167	0.832684	1.56437	-0.3267	0.952599	1.46555	-0.295419	0.907467	1.51742	-0.503803	0.902729	1.04788	-0.446557	0.65658	0.281678	-0.412566	0.915293	1.13562	-0.49286	0.791626	1.19322	-0.612046	0.897985	1.07738	-0.531296	0.705086	1.23452	-0.640612	0.655495	1.23551	-0.56815	0.755857	0.151027	-0.499741	0.712037	1.08925	-0.389753	0.990837	0.432784	-0.406515	0.911707	0.398549	-0.466188	0.837036	0.304355	-0.415055	0.907746	0.847167	-0.496509	1.01443	0.761341	-0.475985	0.994118	0.639397	-0.463023	0.827291	0.119989	-0.415172	0.865703	1.43459	-0.578441	0.854475	1.36338	-0.574456	0.757099	1.38297	-0.575641	0.906434	1.52787	-0.157677	0.861474	1.06295	-0.18783	0.571819	0.11326	-0.321492	1.06406	1.18708	-0.127006	0.932999	1.1892	-0.00544686	1.07074	1.13221	-0.0784018	0.826907	1.19872	0.0239212	0.785299	1.17975	-0.0477323	0.729284	0.0490218	-0.239397	0.698071	1.09006	-0.309671	0.821643	0.375498	-0.282641	0.775633	0.316441	-0.221354	0.745647	0.227135	-0.296335	0.79192	0.895397	-0.146311	0.85079	0.788072	-0.150782	0.787301	0.671999	-0.193787	0.802148	0.0681137	-0.333072	0.889733	1.4266	-0.0763936	0.895188	1.3355	-0.0758601	0.831269	1.33091	-0.0306372
225	2	0.832668	1.56895	-0.326519	0.953212	1.47133	-0.29667	0.905311	1.52271	-0.504175	0.90238	1.05272	-0.446166	0.674657	0.268261	-0.411332	0.909296	1.14628	-0.495616	0.783919	1.20261	-0.613289	0.890876	1.08716	-0.532416	0.697673	1.24458	-0.640515	0.648796	1.24621	-0.5674	0.780725	0.142467	-0.497756	0.712041	1.09478	-0.389422	1.00037	0.437574	-0.406133	0.923094	0.398631	-0.465941	0.85343	0.300699	-0.414064	0.908652	0.853426	-0.49694	1.0167	0.769586	-0.476357	0.997364	0.646999	-0.463647	0.85373	0.115837	-0.413163	0.861119	1.44245	-0.579096	0.849932	1.37131	-0.576415	0.752832	1.39182	-0.575587	0.90835	1.53384	-0.158762	0.861511	1.06527	-0.18767	0.556231	0.11611	-0.321923	1.06695	1.20408	-0.132219	0.938127	1.19858	-0.00856999	1.07635	1.14842	-0.0851241	0.832348	1.20399	0.0225315	0.790056	1.18506	-0.0490172	0.712597	0.0494111	-0.240295	0.698268	1.0951	-0.309035	0.806875	0.37717	-0.284253	0.760043	0.318674	-0.223033	0.729648	0.22929	-0.297773	0.788834	0.898344	-0.147464	0.844823	0.789679	-0.152772	0.777728	0.675447	-0.195587	0.785842	0.0678233	-0.333608	0.892835	1.4328	-0.0774555	0.898912	1.34187	-0.0771193	0.835546	1.33671	-0.0310159
226	2.00833	0.832836	1.57374	-0.326453	0.953922	1.47735	-0.298053	0.90343	1.52826	-0.504422	0.902098	1.05791	-0.44597	0.693546	0.254505	-0.409955	0.90351	1.1566	-0.497578	0.776492	1.21206	-0.614293	0.884216	1.09708	-0.533499	0.690551	1.25475	-0.640139	0.642424	1.25709	-0.56625	0.806192	0.13398	-0.495323	0.712169	1.1006	-0.389026	1.00918	0.442171	-0.405752	0.934103	0.398453	-0.465767	0.869894	0.296994	-0.41316	0.908933	0.859877	-0.497369	1.0182	0.77788	-0.47679	0.999588	0.654441	-0.46443	0.880539	0.112081	-0.410624	0.857028	1.4506	-0.579691	0.845695	1.37949	-0.578199	0.749008	1.40077	-0.57529	0.910402	1.53992	-0.159822	0.861998	1.06792	-0.187689	0.540959	0.119844	-0.322294	1.06865	1.22094	-0.137124	0.942364	1.20818	-0.0117388	1.08059	1.16446	-0.0916737	0.837054	1.20963	0.0210829	0.794138	1.19063	-0.0503499	0.695967	0.0498892	-0.2413	0.698727	1.10035	-0.308296	0.792223	0.379408	-0.285852	0.744657	0.321491	-0.22464	0.713916	0.232017	-0.299144	0.786465	0.901557	-0.148504	0.839086	0.791583	-0.154822	0.768415	0.679358	-0.197384	0.769699	0.0674633	-0.334308	0.895989	1.43901	-0.0785947	0.902295	1.34828	-0.0784281	0.839199	1.3426	-0.0317421
227	2.01667	0.83316	1.57869	-0.326505	0.954695	1.48345	-0.299543	0.901847	1.53397	-0.504543	0.90189	1.0634	-0.44606	0.713161	0.240627	-0.408501	0.898025	1.16668	-0.499019	0.769519	1.22165	-0.614862	0.878009	1.10701	-0.534547	0.683793	1.26495	-0.639467	0.63652	1.26802	-0.564795	0.832224	0.125692	-0.492447	0.712363	1.10665	-0.388536	1.01716	0.446493	-0.405502	0.944748	0.39795	-0.46564	0.886359	0.293301	-0.412148	0.908586	0.866552	-0.498	1.01883	0.785937	-0.477295	1.0007	0.6615	-0.465293	0.907563	0.108893	-0.407528	0.853603	1.45882	-0.580232	0.84181	1.38773	-0.57965	0.745617	1.40979	-0.574725	0.912589	1.54606	-0.160854	0.862915	1.07094	-0.187969	0.526114	0.12456	-0.322587	1.06927	1.23745	-0.14169	0.945744	1.21788	-0.0148598	1.08366	1.1802	-0.0979057	0.841022	1.21552	0.0195643	0.797598	1.19639	-0.0517635	0.679456	0.0505559	-0.242322	0.699392	1.10576	-0.307474	0.777811	0.382266	-0.287242	0.729621	0.324945	-0.226004	0.69866	0.235343	-0.300297	0.784616	0.904971	-0.149485	0.833682	0.79384	-0.156877	0.75951	0.683686	-0.199081	0.753693	0.0671017	-0.334953	0.899	1.44523	-0.0797372	0.905341	1.35466	-0.0797908	0.842249	1.34854	-0.0327995
228	2.025	0.833605	1.58373	-0.326654	0.955504	1.48951	-0.301092	0.900594	1.53974	-0.504633	0.901757	1.06917	-0.446504	0.733308	0.226846	-0.407062	0.892927	1.17655	-0.500264	0.76305	1.2313	-0.615001	0.872237	1.11681	-0.535544	0.67746	1.27513	-0.638492	0.631282	1.27884	-0.563145	0.858771	0.117743	-0.489143	0.712556	1.11281	-0.387908	1.02425	0.450518	-0.405472	0.95499	0.397112	-0.465546	0.902718	0.289682	-0.410919	0.907779	0.873351	-0.498924	1.01853	0.793453	-0.477904	1.00059	0.667949	-0.46606	0.934645	0.106457	-0.403831	0.850881	1.46686	-0.580713	0.838313	1.39584	-0.580693	0.742622	1.41883	-0.573894	0.914844	1.55218	-0.161904	0.864208	1.07437	-0.188524	0.511825	0.130269	-0.322784	1.06893	1.25341	-0.145932	0.948304	1.22754	-0.0178565	1.08575	1.19551	-0.103729	0.844252	1.22153	0.0179597	0.800467	1.20226	-0.0532879	0.66313	0.0515091	-0.243258	0.700213	1.11126	-0.306587	0.763802	0.385723	-0.288253	0.715075	0.329004	-0.227012	0.684046	0.239224	-0.301108	0.783127	0.908555	-0.150444	0.828755	0.796494	-0.158901	0.751175	0.688381	-0.200549	0.737801	0.0667786	-0.335301	0.901705	1.45147	-0.0808322	0.908041	1.36098	-0.0811778	0.844723	1.3545	-0.0341489
229	2.03333	0.834138	1.5888	-0.326864	0.956323	1.49541	-0.302631	0.899692	1.54547	-0.504831	0.901714	1.07516	-0.447302	0.753781	0.213328	-0.405761	0.888264	1.18617	-0.5015	0.757059	1.24091	-0.614854	0.866876	1.12634	-0.536461	0.671578	1.28522	-0.637241	0.626845	1.28942	-0.561367	0.885748	0.110273	-0.485382	0.712719	1.11891	-0.387127	1.03047	0.454218	-0.40563	0.964762	0.39599	-0.465477	0.918853	0.286201	-0.409517	0.906712	0.879972	-0.500042	1.01734	0.800142	-0.478648	0.999231	0.673612	-0.466562	0.961607	0.104962	-0.399513	0.84879	1.47455	-0.581118	0.835231	1.40365	-0.581343	0.73998	1.42783	-0.572818	0.917055	1.5582	-0.163025	0.865787	1.07823	-0.189246	0.498211	0.136884	-0.322869	1.06777	1.26867	-0.149883	0.95009	1.23699	-0.0207018	1.08698	1.21029	-0.109134	0.846765	1.22753	0.0162568	0.802739	1.20817	-0.0549421	0.647036	0.0527947	-0.244027	0.701165	1.11672	-0.305654	0.750376	0.389681	-0.288805	0.701133	0.333566	-0.227625	0.670155	0.24356	-0.301496	0.781949	0.912315	-0.151374	0.82444	0.799537	-0.160855	0.743549	0.693375	-0.20166	0.722033	0.0664548	-0.335239	0.904014	1.45772	-0.0818476	0.910372	1.36726	-0.0825328	0.846659	1.36047	-0.0357187
